<?xml version="1.0" encoding="utf-8"?>
<!-- Generator: Adobe Illustrator 16.0.0, SVG Export Plug-In . SVG Version: 6.00 Build 0)  -->
<!DOCTYPE svg PUBLIC "-//W3C//DTD SVG 1.1//EN" "http://www.w3.org/Graphics/SVG/1.1/DTD/svg11.dtd">
<svg version="1.1" id="Layer_1" xmlns="http://www.w3.org/2000/svg" xmlns:xlink="http://www.w3.org/1999/xlink" x="0px" y="0px"
	 width="1000px" height="369px" viewBox="0 0 1000 369" enable-background="new 0 0 1000 369" xml:space="preserve">
<path fill-rule="evenodd" clip-rule="evenodd" d="M88.455,51.753c3.215-1.172,5.585,0.354,7.771,2.443
	c3.461,3.307,8.29,2.605,10.697-1.659c0.375-0.665,0.314-1.67,0.213-2.488c-0.153-1.24-0.593-2.444-0.774-3.683
	c-0.516-3.499,0.777-5.763,4.018-7.104c2.141-0.885,4.307-1.708,6.456-2.576c3.527-1.425,6.005-0.717,8.204,2.4
	c0.443,0.628,0.823,1.312,1.154,2.005c1.144,2.397,2.828,3.628,5.579,2.732c2.588-0.842,5.341-1.487,5.005-5.182
	c-0.077-0.857,0.004-1.745,0.133-2.601c0.528-3.496,2.319-5.218,5.789-5.751c2.718-0.418,6.225-0.053,7.905-1.619
	c1.61-1.502,1.325-5.042,1.858-7.689c0.781-3.878,1.615-7.748,2.29-11.644c0.257-1.49,0.768-2.182,2.396-2.135
	c3.865,0.113,7.734,0.104,11.6,0.059c1.557-0.018,2.131,0.604,2.409,2.146c1.171,6.541,2.501,13.052,3.782,19.622
	c3.141,0.304,6.098,0.614,9.061,0.871c4.96,0.431,7.209,2.441,7.248,7.488c0.025,3.342,1.472,4.857,4.411,5.757
	c3.592,1.103,4.667,0.774,6.538-2.587c2.774-4.979,5.138-5.857,10.377-3.849c1.533,0.587,3.064,1.173,4.593,1.773
	c4.209,1.653,5.619,4.148,4.818,8.51c-0.822,4.462,1.525,8.208,5.963,8.91c1.174,0.186,2.654-0.708,3.807-1.413
	c2.23-1.364,4.33-2.943,5.887-4.022c-4.159-4.42-8.872-9.444-13.602-14.452c-1.792-1.896-3.702-3.688-5.404-5.66
	c-0.84-0.972-1.331-2.245-2.403-4.124c2.365,0.354,3.952,0.44,5.457,0.84c8.854,2.361,17.714,4.71,26.511,7.272
	c1.965,0.572,4.063,1.616,5.451,3.063c4.263,4.447,8.213,9.194,12.276,13.832c0.444,0.506,0.732,1.247,1.276,1.544
	c0.601,0.33,1.562,0.568,2.089,0.3c0.468-0.238,0.74-1.211,0.777-1.878c0.081-1.426-0.294-2.913-0.026-4.285
	c0.384-1.976,1.727-2.546,3.389-1.215c1.121,0.899,2.033,2.055,3.068,3.066c1.993,1.95,4.198,3.723,5.949,5.869
	c1.254,1.536,2.577,3.512,2.708,5.374c0.359,5.089,0.162,10.222,0.069,15.335c-0.059,3.263-1.806,4.046-4.742,2.754
	c-4.714-2.075-9.566-3.834-14.36-5.727c-0.176,0.259-0.351,0.518-0.526,0.777c1.415,1.831,2.747,3.731,4.261,5.477
	c3.196,3.688,4.392,5.531-0.348,11.039c-1.877,2.181-2.503,4.227-0.646,6.376c0.84,0.972,2.456,1.595,3.787,1.737
	c1.474,0.158,3.021-0.58,4.545-0.633c2.783-0.096,4.822,1.126,5.802,3.861c0.781,2.18,1.59,4.35,2.39,6.523
	c1.523,4.133,0.989,6.593-2.885,8.722c-2.876,1.58-3.63,3.36-3.078,6.454c0.485,2.711,1.517,4.107,4.407,4.304
	c1.95,0.133,4.067,0.571,5.731,1.53c2.695,1.553,4.718,13.608,2.55,15.814c-1.584,1.612-3.976,2.49-6.105,3.486
	c-1.354,0.634-3.063,0.54-3.067,2.771c-0.005,2.163,0.831,3.477,2.927,4.035c1.208,0.322,2.438,0.638,3.578,1.143
	c2.883,1.277,4.216,3.533,3.995,6.672c-0.122,1.733-0.417,3.454-0.542,5.186c-0.453,6.278-1.868,7.778-8.121,8.018
	c-1.984,0.077-3.159,0.669-3.953,2.58c-1.968,4.739-1.862,5.339,2.503,8.203c3.971,2.608,4.807,5.321,2.944,9.55
	c-0.739,1.678-1.468,3.36-2.212,5.035c-1.982,4.458-4.3,5.832-8.894,4.346c-3.061-0.991-4.804-0.182-6.542,2.244
	c-2.354,3.285-2.444,4.271,0.247,7.281c3.999,4.473,4.025,6.673,0.138,11.257c-0.938,1.104-1.955,2.154-2.796,3.329
	c-3.089,4.309-5.749,4.386-10.464,1.666c-3.826-2.208-4.615-2.056-7.694,1.084c-1.655,1.688-1.705,3.111-0.508,5.096
	c1.251,2.077,2.073,4.414,3.177,6.846c1.771-0.354,2.384,0.746,2.031,3.029c-0.47,3.047-0.688,6.133-1.06,9.196
	c-0.204,1.675,0.418,2.433,2.148,2.657c3.636,0.474,7.269,1.029,10.852,1.789c1.175,0.249,2.194,1.231,3.285,1.878
	c-0.775,0.772-1.448,1.705-2.347,2.281c-1.622,1.04-3.527,1.669-5.054,2.816c-6.015,4.526-12.701,5.322-19.954,4.377
	c-2.231-0.293-4.618,0.851-6.959,1.1c-1.224,0.129-2.502-0.258-3.754-0.411c0.472-1.047,0.661-2.472,1.465-3.075
	c3.648-2.738,5.266-6.172,4.636-10.729c-0.208-1.504-0.033-3.061-0.033-4.69c-1.363-1.009-3.064-2.105-4.572-3.423
	c-2.083-1.819-3.966-1.664-5.863,0.188c-0.831,0.81-1.799,1.525-2.442,2.466c-0.554,0.809-1.117,1.923-0.995,2.81
	c0.19,1.391,0.78,2.664,2.801,2.59c2.195-0.081,2.421,1.07,1.146,2.745c-2.752,3.612-5.229,7.469-8.276,10.806
	c-1.223,1.34-3.655,2.219-5.534,2.213c-15.271-0.044-30.543-0.354-45.814-0.571c-19.042-0.267-38.083-0.565-57.126-0.723
	c-2.298-0.019-3.715-0.724-5.007-2.58c-2.694-3.874-5.617-7.587-8.485-11.421c1.955-2.436,4.446-1.424,6.584-1.425
	c1.763,0,2.829-0.221,3.458-2.075c0.624-1.836-0.046-2.646-1.6-3.336c-0.773-0.343-1.417-0.998-2.084-1.554
	c-2.197-1.836-4.275-1.879-6.426,0.161c-1.174,1.112-2.567,1.99-3.533,2.723c0,2.622,0.266,5.13-0.063,7.557
	c-0.473,3.489,1.818,5.185,3.829,7.269c1.031,1.068,2.549,3.112,2.17,3.824c-1.113,2.092-3.116,0.524-4.86,0.32
	c-3.58-0.414-7.251-0.889-10.8-0.521c-4.269,0.441-7.907-0.415-11.461-2.689c-2.759-1.763-5.777-3.115-8.613-4.767
	c-0.841-0.491-1.453-1.376-2.169-2.079c0.963-0.688,1.844-1.77,2.905-1.991c3.678-0.769,7.403-1.396,11.141-1.761
	c2.016-0.196,2.437-1.072,2.226-2.792c-0.366-2.969-0.712-5.941-1.021-8.916c-0.134-1.286-0.691-2.816,1.47-3.085
	c0.284-0.034,0.59-0.541,0.74-0.89c0.821-1.913,1.358-3.997,2.45-5.735c1.402-2.233,1.061-3.81-0.737-5.58
	c-1.849-1.821-3.487-3.153-6.303-1.709c-2.573,1.32-5.388,2.166-8.096,3.221c-0.101-0.244-0.202-0.489-0.303-0.733
	c-0.032,0.171-0.147,0.446-0.083,0.497c3.927,3.136,4.825,7.248,3.849,11.949c-0.656,3.156,0.551,5.81,1.993,8.49
	c0.363,0.673,0.293,2.064-0.176,2.564c-0.466,0.5-2.041,0.728-2.521,0.332c-5.487-4.504-12.392-3.736-18.67-5.279
	c-1.473-0.361-3.081-1.167-4.083-2.266c-2.8-3.063-5.327-6.375-7.924-9.619c-0.323-0.403-0.414-0.994-0.845-2.087
	c6.045,0.549,11.682,1.06,17.747,1.607c-0.15-3.389-0.457-6.165-0.324-8.921c0.076-1.567,0.873-3.099,1.345-4.648
	c1.264,0.671,2.579,1.262,3.77,2.041c0.62,0.406,1.023,1.146,2.049,1.318c-1.035-1.276-2.065-2.557-3.106-3.827
	c-2.349-2.87-2.383-5.374-0.053-8.327c0.777-0.985,1.764-1.825,2.42-2.877c0.475-0.761,0.852-1.792,0.772-2.656
	c-0.341-3.73-4.494-6.473-8.147-5.758c-5.059,0.991-7.607,0.313-9.199-4.391c-0.555-1.639-1.396-3.18-2.088-4.772
	c-1.81-4.164-1.043-6.79,2.724-9.37c4.781-3.276,4.912-3.931,2.543-9.067c-0.672-1.458-1.52-1.987-3.087-1.972
	c-1.432,0.013-2.917-0.18-4.289-0.588c-2.707-0.806-4.55-2.396-4.547-5.571c0.001-1.728-0.383-3.452-0.544-5.182
	c-0.542-5.842,1.065-8.058,6.813-9.391c1.833-0.425,3.617-0.82,3.94-3.161c0.261-1.903-0.3-3.229-2.263-3.743
	c-1.027-0.269-2.083-0.451-3.084-0.792c-3.887-1.326-5.154-3.24-4.864-7.337c0.136-1.927,0.39-3.844,0.537-5.77
	c0.337-4.436,2.789-7.092,7.17-6.958c6.333,0.194,6.21-2.04,6.29-7.686c0.01-0.696-0.992-1.509-1.676-2.088
	c-1.243-1.049-2.72-1.839-3.882-2.965c-1.759-1.703-2.205-3.719-1.03-6.064c0.905-1.805,1.552-3.739,2.297-5.622
	c1.958-4.95,4.497-6.255,9.695-4.974c4.008,0.987,5.256,0.628,6.186-2.5c0.373-1.255-0.073-2.911-0.579-4.218
	c-0.393-1.016-1.527-1.719-2.207-2.652c-2.36-3.234-2.289-5.142,0.222-8.275c1.39-1.735,2.805-3.45,4.18-5.196
	c2.484-3.153,4.741-3.712,8.322-2.004c0.52,0.249,1.014,0.56,1.508,0.86c4.108,2.505,7.714,1.329,9.3-3.187
	c0.266-0.755-0.13-1.838-0.452-2.681c-0.479-1.253-1.292-2.384-1.732-3.647c-0.948-2.72-0.55-5.058,1.993-6.9
	c1.608-1.165,2.966-2.676,4.437-4.032C86.389,52.968,87.422,52.361,88.455,51.753z M244.819,138.065
	c-0.071,1.224-0.128,1.794-0.134,2.365c-0.186,16.143-0.415,32.284-0.488,48.428c-0.01,2.188-0.721,3.205-2.702,4.011
	c-11.168,4.547-22.282,9.223-33.411,13.862c-0.847,0.352-1.673,0.75-2.673,1.201c6.987,10.494,13.758,20.663,21.112,31.712
	c0.764-1.214,1.181-2.123,1.815-2.842c5.616-6.378,11.256-12.735,16.918-19.073c15.854-17.748,25.443-38.267,26.109-62.231
	c0.835-30.07-10.129-55.44-32.213-75.9c-6.238-5.78-13.244-10.53-20.992-14.505c-0.971,1.478-1.826,2.782-2.963,4.513
	c2.432,0.659,4.332,1.497,6.283,1.635c4.329,0.307,7.727,2.585,10.745,5.189c3.854,3.328,6.288,7.561,5.068,13.072
	c-0.169,0.771,0.373,1.675,0.324,2.502c-0.077,1.286,0.061,3.155-0.685,3.706c-1.318,0.974-2.795,0.228-3.927-1.223
	c-0.967-1.237-2.375-2.124-3.557-3.2c-0.784-0.715-2.02-1.403-2.167-2.254c-0.308-1.792-1.774-3.17-0.865-5.583
	c0.612-1.626-1.336-4.217-2.064-6.175c-1.614-0.511-3.265-1.006-4.895-1.562c-0.839-0.286-1.636-0.699-2.479-0.97
	c-0.044-0.014-0.608,0.921-0.475,1.144c0.455,0.758,0.982,1.663,1.719,2.02c1.362,0.658,3.047,0.717,4.304,1.499
	c1.02,0.634,1.608,1.962,2.388,2.983c-0.226,0.172-0.452,0.344-0.677,0.516c-0.653-0.44-1.307-0.879-1.961-1.319
	c-0.24,0.147-0.481,0.293-0.721,0.441c1.152,2.469,2.218,4.984,3.478,7.398c1.488,2.856,3.573,5.487,4.544,8.492
	c0.471,1.46-0.702,3.76-1.744,5.251c-0.417,0.598-2.629,0.401-3.761-0.069c-1.557-0.645-2.937-1.803-4.257-2.905
	c-1.689-1.41-3.243-2.984-4.856-4.487c2.383,8.983,5.123,17.61,8.063,26.168c0.306,0.892,1.697,1.708,2.743,2.003
	c12.624,3.565,25.278,7.02,37.919,10.525c1.165,0.322,2.287,0.789,3.386,1.174c-0.239,2.585-2.058,2.435-3.497,2.454
	C257.407,138.112,251.239,138.065,244.819,138.065z M97.43,234.723c8.303-11.438,16.39-22.577,24.647-33.95
	c-13.409-3.506-26.27-6.898-39.156-10.194c-1.702-0.435-2.292-1.091-2.271-2.925c0.175-15.658,0.237-31.319,0.308-46.979
	c0.007-1.494-0.158-2.989-0.244-4.479c-6.848-0.491-13.342-0.955-20.446-1.463c6.642-4.743,12.752-9.071,18.81-13.473
	c0.792-0.574,1.842-1.503,1.87-2.3c0.173-4.897,0.087-9.804,0.087-14.763c-1.942-0.104-3.489-0.188-5.615-0.302
	c7.911-4.595,15.21-8.91,22.617-13.032c0.816-0.454,2.413-0.125,3.36,0.38c6.133,3.27,12.189,6.683,18.257,10.072
	c0.498,0.278,0.902,0.722,1.677,1.356c-1.887,0.162-3.269,0.28-4.641,0.397c0,1.663,0,2.97,0,4.565
	c8.94-2.822,17.656-5.574,26.333-8.314c0-3.522,0-6.849,0-10.046c-14.644,0-29.055,0-43.982,0
	c5.476-5.905,10.698-11.323,15.639-16.985c1.66-1.902,3.358-2.463,5.731-2.456c20.497,0.063,40.992,0.035,61.489,0.034
	c1.613,0,3.226,0,5.539,0c-0.61,1.798-0.74,4.005-1.575,4.313c-2.672,0.988-3.682,1.778-0.915,3.828
	c0.468,0.347,1.128,1.148,1.316,1.044c1.397-0.771,2.749-1.66,3.967-2.686c0.145-0.122-0.646-1.275-0.911-1.984
	c-0.352-0.944-1.149-2.497-0.829-2.795c2.155-2.007,0.517-3.166-0.167-4.009c-1.52,0.415-2.584,0.956-3.648,0.959
	c-20.884,0.063-41.768-0.023-62.648,0.161c-3.668,0.033-6.6-0.52-8.573-3.81c-0.076-0.127-0.34-0.141-0.642-0.255
	c-8.643,4.452-16.615,9.989-23.873,16.586c-32.346,29.403-41.253,75.035-22.195,113.484
	C74.333,210.018,86.579,221.693,97.43,234.723z M214.125,232.31c-4.8-7.312-9.636-14.681-14.473-22.05
	c-3.418,1.423-6.502,2.791-9.654,3.975c-1.017,0.381-2.278,0.585-3.315,0.358c-8.954-1.958-17.874-4.074-26.827-6.036
	c-1.508-0.33-2.068-0.889-2.115-2.457c-0.089-2.966-0.441-5.925-0.707-9.151c-7.319,0-14.45,0.082-21.576-0.054
	c-1.92-0.036-2.946,0.668-3.951,2.181c-6.149,9.252-12.388,18.442-18.591,27.657c-0.517,0.767-0.998,1.558-1.686,2.638
	c2.49,0,4.581,0.005,6.672-0.001c14.521-0.049,28.463,2.212,41.047,10.093c2.107,1.32,4.302,1.238,6.583-0.023
	c9.507-5.265,19.867-7.373,30.604-7.609C202.071,231.697,208.018,232.127,214.125,232.31z M156.86,190.154
	c0-2.989,0.031-6.168-0.008-9.347c-0.055-4.426,0.396-8.949-0.353-13.26c-2.022-11.651-11.793-18.183-22.281-15.392
	c-5.56,1.479-9.442,6.55-9.588,12.317c-0.256,10.135-0.597,20.267-0.885,30.4c-0.025,0.869,0.073,1.743,0.114,2.615
	c1.723-1.328,2.972-2.691,3.84-4.264c1.445-2.62,3.441-3.261,6.388-3.156C141.495,190.331,148.917,190.154,156.86,190.154z
	 M132.69,246.328c-8.346-0.455-16.425-0.896-24.657-1.345c1.767,4.558,8.766,6.648,4.231,12.978
	c4.033,0.26,7.569,1.232,10.729-1.747c1.897-1.79,4.308-1.958,6.638-0.316c0.897,0.632,1.949,1.046,3.059,1.626
	C132.69,253.607,132.69,250.091,132.69,246.328z M215.678,249.432c-0.118-0.293-0.234-0.584-0.352-0.876
	c-6.331,0-12.664-0.05-18.994,0.016c-5.084,0.051-6.735,1.903-6.428,6.951c0.246,4.027,1.87,4.901,5.32,2.73
	c2.096-1.319,4.134-1.529,6.591-1c4.168,0.896,8.44,1.316,12.667,1.937c0.223-0.16,0.447-0.321,0.671-0.482
	C211.563,255.301,213.487,252.355,215.678,249.432z M158.257,249.661c1.174-1.867,0.645-3.296-1.042-4.178
	c-3.406-1.783-6.764-3.795-10.378-5.018c-12.045-4.077-24.567-4.868-37.181-4.736c-2.632,0.027-4.971,1.552-4.528,3.138
	c0.699,2.502,2.788,1.279,4.371,1.332c9.542,0.316,19.131,0.147,28.61,1.088C145.433,242.017,151.935,245.769,158.257,249.661z
	 M220.438,243.292c-0.823-3.396-1.799-4.653-3.889-4.589c-11.158,0.337-22.374,0.215-33.445,1.409
	c-5.759,0.621-11.299,3.524-16.854,5.614c-1.981,0.744-2.799,2.427-1.634,4.567c0.358-0.083,0.579-0.075,0.718-0.178
	c0.386-0.285,0.778-0.582,1.098-0.938c3.347-3.732,7.677-5.621,12.532-5.799c11.069-0.407,22.149-0.549,33.228-0.686
	C214.847,242.661,217.511,243.066,220.438,243.292z M207.872,119.522c-5.293-8.919-4.45-18.62-6.795-27.832
	c-1.426,1.427-2.798,2.911-3.094,4.583c-0.887,5.017-1.312,10.114-2.01,15.167c-0.264,1.918,0.469,3.272,2.092,4.006
	C201.181,116.854,204.378,118.083,207.872,119.522z M246.595,55.505c3.608,2.359,4.632,5.377,2.929,9.217
	c-0.352,0.79-0.718,1.589-1.198,2.304c-2.063,3.081,0.754,4.564,2.179,6.374c1.318,1.671,3.072,2.096,5.146,0.936
	c2.164-1.21,4.468-2.172,6.576-3.178c-2.437-2.145-5.098-4.37-7.594-6.767c-0.573-0.55-0.584-1.688-0.855-2.556
	c0.866-0.086,1.741-0.297,2.594-0.229c1.28,0.104,2.544,0.404,3.814,0.62c0.076-0.341,0.151-0.681,0.228-1.021
	C256.87,56.985,251.017,58.094,246.595,55.505z M111.46,58.154c2.733-1.15,5.452-2.339,8.206-3.44c2.82-1.128,5.674-2.17,8.013-3.06
	c-1.655-1.79-3.187-3.637-4.925-5.263c-1.329-1.241-2.888-3.066-4.4-3.121c-4.763-0.173-6.801,2.656-5.684,7.304
	C113.325,53.302,113.158,55.724,111.46,58.154z M68.195,95.66c3.232-3.978,6.988-8.6,10.375-12.768
	c-2.188-0.707-4.417-1.146-6.382-2.119c-4.034-1.998-5.086-1.913-7.883,1.486c-2.105,2.559-1.806,3.637,0.705,7.044
	C66.446,91.253,67.233,93.685,68.195,95.66z M218.382,57.779c-2.998-2.634-2.906-5.395-2.277-8.472
	c0.441-2.159,0.268-4.421-2.451-5.493c-4.275-1.686-5.476-1.528-7.588,1.188c-1.643,2.113-3.404,4.132-4.94,5.986
	C206.403,53.065,212.089,55.303,218.382,57.779z M68.642,210.434c-1.342,2.247-2.573,4.55-4.037,6.692
	c-1.536,2.246-1.922,4.173,0.085,6.457c2.622,2.98,3.413,3.358,6.608,2.05c2.374-0.973,4.782-1.861,7.026-2.729
	C75.121,218.777,71.707,214.379,68.642,210.434z M55.589,184.779c-1.797,1.608-3.731,3.519-5.852,5.191
	c-2.4,1.894-2.405,3.854-1.3,6.567c1.135,2.789,2.856,3.583,5.582,3.282c2.635-0.291,5.285-0.444,7.706-0.64
	C59.708,194.448,57.5,189.264,55.589,184.779z M261.313,95.694c-0.596-3.187,1.107-5.395,2.97-7.653
	c2.123-2.575,1.8-3.963-0.328-6.885c-1.833-2.517-3.854-2.733-6.505-1.531c-2.25,1.021-4.627,1.763-6.728,2.547
	C254.046,86.415,257.646,91.012,261.313,95.694z M259.098,210.36c-2.934,3.802-6.261,8.109-9.368,12.134
	c2.045,0.81,3.97,1.366,5.694,2.293c3.854,2.072,5.387,1.728,8.042-1.653c2.087-2.661,0.545-4.58-0.844-6.717
	C261.359,214.47,260.278,212.406,259.098,210.36z M266.2,198.822c2.414,0.211,5.012,0.428,7.606,0.669
	c1.918,0.178,3.827,0.637,4.953-1.731c1.878-3.948,1.879-5.426-0.414-7.549c-2.063-1.911-4.148-3.796-6.051-5.535
	C270.26,189.399,268.101,194.41,266.2,198.822z M88.393,73.528c3.88-2.899,8.127-6.072,12.489-9.333
	c-1.348-0.542-2.485-0.839-3.443-1.429c-1.051-0.646-1.924-1.578-2.898-2.357c-2.894-2.313-4.184-2.105-7.598,0.428
	c-2.657,1.972-1.729,4.063-0.8,6.368C86.976,69.272,87.646,71.406,88.393,73.528z M52.504,172.349
	c-0.546-4.795-1.151-10.104-1.769-15.525c-0.889,0.648-1.661,1.37-2.567,1.831c-1.016,0.515-2.144,0.823-3.239,1.17
	c-3.492,1.104-4.483,2.421-4.115,5.536c0.499,4.209,1.46,5.033,5.475,5.49C48.389,171.089,50.432,171.832,52.504,172.349z
	 M62.561,104.689c-2.702-0.219-5.229-0.439-7.758-0.628c-3.532-0.264-3.983,0.289-5.711,4.291c-1.192,2.759,0.265,4.134,2.066,5.569
	c1.828,1.457,3.666,2.903,5.433,4.301C58.537,113.812,60.584,109.172,62.561,104.689z M228.667,63.629
	c3.946,2.968,8.208,6.173,12.055,9.068c0.673-1.975,1.224-4.072,2.089-6.031c1.469-3.321,1.206-4.785-1.626-6.937
	c-3.086-2.345-4.321-2.219-7.346,0.314C232.263,61.363,230.455,62.404,228.667,63.629z M275.606,171.857
	c2.279-0.458,4.408-0.843,6.519-1.321c1.953-0.443,4.308-0.111,4.596-3.257c0.458-4.988,0.072-6.109-3.34-7.475
	c-2.07-0.827-4.097-1.757-6.144-2.64C276.689,162.11,276.128,167.166,275.606,171.857z M191.825,97.579
	c0.177,0.007,0.353,0.015,0.529,0.023c0.11-0.882,0.152-1.78,0.351-2.642c0.254-1.104,0.385-2.359,1.008-3.238
	c2.456-3.459,5.275-6.673,7.563-10.233c1.08-1.68,2.085-2.367,4.033-2.466c1.157-0.059,2.266-1.06,3.397-1.637
	c-1.125-0.312-2.255-0.601-3.372-0.94c-1.008-0.307-2-0.668-2.998-1.005c0.406-1.179,0.788-2.367,1.226-3.534
	c0.449-1.198,0.952-2.377,1.431-3.564c-0.252-0.138-0.504-0.276-0.756-0.415c-1.529,1.017-2.936,2.449-4.618,2.953
	c-2.493,0.745-2.412,1.587-0.996,3.333c0.892,1.103,2.187,2.129,0.924,4.012c-1.785,2.662-3.182,5.582-4.866,8.317
	c-0.329,0.533-1.175,0.914-1.844,1.042c-2.586,0.5-3.902,2.143-3.195,4.536C190.193,93.993,191.085,95.764,191.825,97.579z
	 M272.108,118.045c0.757-0.861,1.32-1.654,2.034-2.276c0.787-0.687,1.695-1.243,2.578-1.813c2.921-1.887,3.351-3.1,2.157-6.204
	c-1.465-3.809-2.718-4.575-6.078-4.142c-2.291,0.296-4.621,0.296-6.726,0.416C267.932,108.346,269.968,113.077,272.108,118.045z
	 M51.016,145.826c0.547-4.69,1.121-9.616,1.709-14.657c-1.41,0.523-2.456,1.031-3.561,1.289c-1.209,0.282-2.489,0.256-3.712,0.494
	c-3.353,0.65-3.807,1.499-4.266,6.057c-0.274,2.716,1.544,3.498,3.414,4.301C46.672,144.2,48.8,144.963,51.016,145.826z
	 M277.184,145.363c2.077-0.721,3.877-1.307,5.647-1.972c1.997-0.75,3.991-1.406,3.746-4.293c-0.38-4.472-1.162-5.851-4.257-6.479
	c-2.249-0.455-4.508-0.865-6.766-1.295C276.096,135.995,276.647,140.744,277.184,145.363z M189.77,48.334
	c-2.88-3.114-2.88-3.114-3.562-7.857c-0.53-3.692-5.636-6.192-8.605-4.063c-0.601,0.43-0.93,2.003-0.642,2.769
	c0.932,2.473-0.51,6.206,2.537,7.36C182.662,47.741,186.268,47.776,189.77,48.334z M87.97,234.495
	c-1.16,2.593-2.456,4.693-3.035,6.975c-0.8,3.149,2.228,4.226,4.06,5.645c1.863,1.443,4.953-0.193,7.338-3.446
	C93.631,240.703,90.924,237.736,87.97,234.495z M239.569,235.215c-2.866,3.152-5.556,6.113-8.423,9.267
	c1.368,1.059,2.532,2.041,3.779,2.905c2.143,1.484,3.86,0.678,5.676-0.882c1.797-1.541,2.943-3.086,1.853-5.46
	C241.614,239.215,240.672,237.432,239.569,235.215z M139.82,48.386c2.285-0.389,4.907-0.835,7.565-1.288
	c0.652-3.678,1.268-7.143,1.886-10.628c-5.872-0.647-6.897,0.261-7.556,5.44C141.438,44.09,140.486,46.185,139.82,48.386z
	 M185.964,100.237c-2.043,3.84-3.927,7.382-5.923,11.138c2.776,0.774,5.214,1.455,8.064,2.25
	C187.378,108.956,189.441,104.377,185.964,100.237z M181.61,259.753c-0.006-0.198-0.012-0.396-0.019-0.596
	c-12.701,0-25.403,0-38.104,0c-0.003,0.199-0.007,0.397-0.01,0.596C156.188,259.753,168.899,259.753,181.61,259.753z
	 M193.401,66.825c-1.776-4.162-5.684-5.064-9.073-7.382C185.338,63.827,188.386,66.238,193.401,66.825z M211.694,61.359
	c-0.54,0.094-1.082,0.187-1.622,0.28c-0.084,1.362-0.169,2.724-0.253,4.086c0.879-0.559,2.099-0.936,2.527-1.736
	C212.664,63.399,211.949,62.256,211.694,61.359z"/>
<path fill-rule="evenodd" clip-rule="evenodd" d="M236.459,283.765c22.664-13.356,45.259-25.713,65.28-43.577
	c-0.362,4.195-0.631,7.503-0.937,10.807c-0.517,5.577-0.966,11.164-1.639,16.722c-0.231,1.915,0.431,2.974,1.854,4.091
	c3.646,2.863,7.157,5.896,11.06,9.14c-12.796,12.93-26.957,23.414-44.647,28.694c0,6.756-0.122,13.424,0.056,20.085
	c0.079,2.971-0.975,5.223-2.952,7.237c-3.954,4.027-8.871,6.462-14.04,8.446c-12.47,4.785-25.562,6.769-38.738,7.988
	c-21.186,1.963-42.442,2.546-63.705,1.648c-19.783-0.837-39.584-1.659-59.087-5.539c-8.73-1.736-17.315-3.976-25.297-8.024
	c-2.483-1.26-4.869-2.784-7.09-4.465c-3.534-2.676-5.655-5.9-5.256-10.845c0.504-6.23,0.122-12.533,0.122-18.936
	c-17.234-5.573-31.082-16.264-43.572-29.38c3.963-3.156,7.699-6.2,11.518-9.137c1.264-0.97,1.775-1.882,1.611-3.614
	c-0.73-7.691-1.235-15.403-1.787-23.112c-0.093-1.303-0.013-2.619-0.013-4.762c19.595,18.011,41.746,31.105,64.548,44.945
	c-6.423,2.095-12.128,3.967-17.842,5.812c-1.651,0.532-3.362,0.896-4.985,1.499c-1.958,0.726-3.851,1.767-3.868,4.176
	c-0.017,2.425,1.205,4.305,3.576,5.096c6.211,2.073,12.362,4.427,18.704,5.991c15.334,3.783,31.032,5.176,46.758,5.868
	c17.274,0.76,34.573,1.556,51.854,1.424c22.503-0.169,44.993-1.417,67.026-6.613c4.672-1.101,9.181-2.893,13.766-4.366
	c2.405-0.771,3.684-2.524,3.786-4.943c0.108-2.552-1.791-3.791-3.852-4.521c-4.18-1.479-8.453-2.7-12.645-4.154
	C242.937,286.375,239.916,285.104,236.459,283.765z M258.159,336.209c2.603-1.444,3.706-3.502,3.548-6.614
	c-0.274-5.401-0.133-10.822-0.159-16.235c-0.01-1.784-0.002-3.566-0.002-5.559c-1.502,0.346-2.43,0.552-3.354,0.773
	c-16.642,3.977-33.476,7.058-50.547,7.947c-17.544,0.917-35.141,0.94-52.717,1.118c-27.527,0.277-54.789-2.32-81.703-8.215
	c-5.047-1.104-10.056-2.391-15.937-3.798c0,7.558,0.189,14.7-0.09,21.826c-0.118,3.017,0.928,5.021,3.183,6.637
	c1.408,1.007,2.798,2.209,4.391,2.765c6.897,2.407,13.719,5.4,20.838,6.739c20.913,3.932,42.121,5.885,63.372,6.259
	c18.908,0.331,37.858-0.161,56.752-1.051c13.778-0.648,27.541-2.427,40.72-6.849c4.125-1.385,7.882-3.861,11.806-5.836
	L258.159,336.209z"/>
<path fill-rule="evenodd" clip-rule="evenodd" d="M77.501,295.9c8.191-6.933,15.748-13.365,23.373-19.718
	c0.649-0.54,1.756-0.772,2.641-0.752c18.634,0.435,37.266,0.96,55.9,1.395c14.197,0.331,28.396,0.547,42.594,0.837
	c5.118,0.104,10.236,0.229,15.347,0.464c0.98,0.043,2.122,0.408,2.867,1.019c6.886,5.619,13.702,11.325,20.528,17.018
	c0.187,0.155,0.267,0.438,0.603,1.018C186.78,296.753,132.494,296.33,77.501,295.9z"/>
<path fill-rule="evenodd" clip-rule="evenodd" d="M88.455,51.753c-1.033,0.608-2.065,1.215-3.098,1.823
	c-5.597,3.121-12.362,3.638-17.798,7.117c0.126,0.452,0.252,0.903,0.378,1.354c1.325-0.166,2.647-0.367,3.978-0.483
	c0.789-0.067,1.589,0.002,2.384,0.01c-0.209,0.872-0.125,2.104-0.678,2.556c-3.485,2.85-7.003,5.688-10.741,8.187
	c-1.622,1.084-3.818,1.281-5.708,1.999c-3.304,1.254-6.616,2.501-9.843,3.936c-2.559,1.138-4.247,0.45-4.328-2.37
	c-0.163-5.599-0.2-11.212,0.035-16.805c0.056-1.333,1.173-2.807,2.166-3.881c2.477-2.678,5.09-5.242,7.797-7.688
	c1.143-1.032,2.658-1.654,4.004-2.462c0.423,1.682,0.849,3.362,1.265,5.046c0.021,0.086-0.065,0.203-0.037,0.283
	c0.337,0.959,0.687,1.913,1.033,2.869c0.927-0.518,2.094-0.83,2.741-1.587c2.755-3.221,5.288-6.634,8.032-9.865
	c3.71-4.366,8.194-7.402,13.95-8.726c8.17-1.88,16.233-4.225,24.35-6.34c0.904-0.236,1.859-0.272,2.792-0.4
	c0.198,0.21,0.396,0.421,0.593,0.631c-1.181,1.634-2.174,3.455-3.577,4.869c-5.917,5.972-11.964,11.814-17.94,17.729
	C89.543,50.208,89.034,51.017,88.455,51.753z"/>
<path fill-rule="evenodd" clip-rule="evenodd" d="M274.159,239.156c6.219-0.584,11.838-1.111,17.455-1.641
	c0.125,0.275,0.252,0.551,0.378,0.825c-1.655,2.073-3.529,4.01-4.922,6.246c-3.208,5.146-7.613,7.789-13.746,7.971
	c-4.438,0.131-8.795,0.926-12.461,3.93c-0.632,0.518-2.062,0.061-3.124,0.054c0.013-0.957-0.357-2.19,0.101-2.827
	c2.167-3,2.237-6.248,1.636-9.658c-0.65-3.694,0.305-6.78,3.1-9.42c2.667-2.52,5.03-5.355,7.66-7.916
	c0.711-0.69,2.516-1.468,2.766-1.205c0.811,0.855,1.542,2.163,1.57,3.315C274.646,231.991,274.348,235.163,274.159,239.156z"/>
<path fill-rule="evenodd" clip-rule="evenodd" d="M296.52,151.187c3.356,2.686,6.708,5.082,9.703,7.862
	c2.204,2.046,3.863,1.986,5.858-0.075c2.549-2.632,5.187-5.181,7.841-7.709c0.579-0.551,1.674-1.372,2.035-1.171
	c0.716,0.396,1.501,1.402,1.529,2.183c0.171,4.818,0.238,9.646,0.08,14.464c-0.028,0.868-1.111,1.938-1.978,2.496
	c-2.265,1.455-4.726,2.604-7.023,4.011c-2.84,1.738-5.362,3.793-6.108,7.328c-0.135,0.638-0.458,1.328-0.908,1.78
	c-0.487,0.491-1.438,1.165-1.808,0.984c-0.618-0.301-1.446-1.374-1.299-1.854c1.557-5.115-1.678-8.172-4.746-11.215
	c-5-4.959-3.794-11.361-4.247-17.381C295.423,152.526,295.912,152.125,296.52,151.187z"/>
<path fill-rule="evenodd" clip-rule="evenodd" d="M32.362,150.763c0.248,2.117,0.531,3.274,0.483,4.418
	c-0.079,1.923-0.536,3.837-0.536,5.756c0,4.496-2.114,7.939-5.276,10.792c-2.707,2.441-4.072,5.165-3.392,8.902
	c0.151,0.833-0.803,1.867-1.248,2.81c-0.77-0.603-2.047-1.083-2.227-1.829c-1.396-5.774-5.928-8.46-10.69-10.572
	c-4.046-1.792-5.665-4.292-5.099-8.666c0.393-3.044,0.073-6.173,0.301-9.247c0.077-1.037,0.859-2.021,1.32-3.029
	c0.875,0.448,1.902,0.729,2.597,1.371c2.618,2.426,5.185,4.913,7.658,7.484c1.969,2.045,3.598,2.216,5.822,0.146
	C25.066,156.315,28.42,153.921,32.362,150.763z"/>
<path fill-rule="evenodd" clip-rule="evenodd" d="M294.363,130.042c0.413-1.595,0.824-3.19,1.236-4.785
	c1.657,0.75,3.439,1.314,4.938,2.304c1.596,1.054,2.975,2.46,4.359,3.805c1.948,1.892,3.505,1.476,5.023-0.556
	c1.503-2.008,2.986-4.065,4.742-5.838c0.836-0.846,2.349-1.563,3.438-1.424c0.689,0.088,1.179,1.856,1.719,2.892
	c0.127,0.242,0.08,0.57,0.136,0.853c1.448,7.141,1.154,13.647-5.521,18.492c-2.203,1.599-3.935,3.933-3.633,7.176
	c0.066,0.715-1.074,1.542-1.658,2.318c-0.79-0.684-1.716-1.262-2.336-2.076c-0.924-1.211-1.319-3.159-2.484-3.8
	c-5.973-3.285-10.313-7.346-9.296-14.947c0.187-1.401-0.202-2.878-0.325-4.321C294.588,130.104,294.477,130.073,294.363,130.042z"/>
<path fill-rule="evenodd" clip-rule="evenodd" d="M7.458,135.797c0.293-3.466,0.372-6.28,0.837-9.029
	c0.199-1.181,1.045-2.976,1.874-3.147c1.086-0.222,2.723,0.602,3.626,1.484c1.713,1.674,3.14,3.662,4.563,5.61
	c1.601,2.191,3.213,2.479,5.25,0.546c1.889-1.792,3.839-3.542,5.918-5.104c0.825-0.62,2.069-0.683,3.122-0.999
	c0.277,0.952,0.817,1.911,0.786,2.852c-0.125,3.76-0.548,7.512-0.625,11.271c-0.057,2.793-1.233,4.751-3.5,6.223
	c-1.618,1.052-3.134,2.269-4.796,3.24c-1.75,1.021-3.05,2.138-3.245,4.391c-0.066,0.764-1.167,1.644-1.999,2.035
	c-0.343,0.162-1.789-0.842-1.778-1.293c0.135-5.838-4.44-8.738-7.722-12.34C7.993,139.585,6.839,137.769,7.458,135.797z"/>
<path fill-rule="evenodd" clip-rule="evenodd" d="M289.838,75.904c0.266-2.095,0.462-4.203,0.819-6.283
	c0.334-1.945,1.677-2.043,2.983-1.103c1.065,0.767,2.017,1.815,2.729,2.924c1.98,3.081,3.758,6.291,5.717,9.387
	c1.109,1.75,1.27,3.389,0.751,5.453c-1.09,4.343-1.773,8.788-2.626,13.19c-0.337,1.743-1.2,2.522-3.054,1.829
	c-3.754-1.404-7.587-2.617-11.278-4.172c-1.526-0.644-2.97-1.782-4.098-3.019c-2.404-2.636-4.627-5.444-6.808-8.271
	c-0.496-0.642-0.967-1.982-0.651-2.408c0.442-0.593,1.674-0.949,2.498-0.845c2.673,0.337,5.313,0.954,7.971,1.418
	c3.838,0.671,4.833-0.079,5.204-4.019c0.125-1.34,0.02-2.702,0.02-4.054C289.957,75.923,289.897,75.914,289.838,75.904z"/>
<path fill-rule="evenodd" clip-rule="evenodd" d="M38.241,76.443c-0.054,8.111,0.539,8.605,8.327,7.009
	c1.604-0.329,3.199-0.776,4.82-0.907c0.826-0.066,1.878,0.253,2.471,0.792c0.284,0.259-0.033,1.609-0.467,2.158
	c-2.628,3.329-5.251,6.678-8.135,9.781c-1.039,1.118-2.742,1.707-4.237,2.296c-3.097,1.219-6.304,2.169-9.381,3.434
	c-2.632,1.083-3.44,0.357-3.739-2.464c-0.389-3.689-1.124-7.402-2.246-10.934c-0.945-2.974-0.619-5.323,1.179-7.808
	c1.686-2.332,3.016-4.92,4.508-7.393c0.347-0.576,0.602-1.29,1.103-1.676c1.307-1.012,2.727-1.877,4.102-2.801
	c0.497,1.394,1.156,2.755,1.445,4.19C38.27,73.522,38.172,74.999,38.241,76.443z"/>
<path fill-rule="evenodd" clip-rule="evenodd" d="M289.537,103.47c2.324,0.776,5.167,1.667,7.967,2.677
	c3.465,1.25,4.609,0.805,5.972-2.697c1.014-2.602,1.843-5.277,2.899-7.86c0.321-0.786,1.125-1.375,1.707-2.054
	c0.681,0.629,1.614,1.133,1.997,1.908c1.404,2.847,2.493,5.85,3.942,8.67c2.982,5.808,3.047,5.776-1.238,10.612
	c-0.833,0.939-1.572,1.997-2.537,2.774c-2.152,1.733-2.432,3.895-2.186,6.473c0.1,1.045-0.838,2.188-1.304,3.287
	c-1.107-0.687-2.889-1.151-3.203-2.101c-1.186-3.591-3.733-5.244-7.128-5.964c-4.211-0.892-7.267-2.749-7.812-7.557
	c-0.198-1.752-1.389-3.373-1.958-5.108C286.004,104.542,287.036,103.656,289.537,103.47z"/>
<path fill-rule="evenodd" clip-rule="evenodd" d="M19.53,125.087c1.475-3.792,0.129-6.172-2.292-8.19
	c-0.147-0.123-0.268-0.277-0.399-0.419c-5.78-6.253-5.743-6.233-1.936-13.646c1.318-2.565,2.331-5.287,3.643-7.855
	c0.332-0.65,1.238-1.258,1.954-1.358c0.365-0.051,1.064,1,1.32,1.667c1.105,2.879,1.994,5.845,3.172,8.693
	c1.177,2.851,2.624,3.346,5.554,2.318c2.364-0.83,4.707-1.762,7.128-2.375c1.104-0.279,2.769-0.32,3.448,0.315
	c0.552,0.515,0.219,2.258-0.088,3.353c-0.649,2.313-1.34,4.655-2.402,6.792c-0.675,1.357-1.919,2.537-3.151,3.477
	c-0.872,0.665-2.128,0.895-3.251,1.145c-3.701,0.822-6.552,2.48-7.837,6.402c-0.282,0.86-1.973,1.602-3.082,1.708
	C20.744,127.167,20.029,125.693,19.53,125.087z"/>
<path fill-rule="evenodd" clip-rule="evenodd" d="M50.166,217.644c-0.683,1.773-1.205,3.765-2.177,5.504
	c-1.417,2.536-1.854,4.921-0.445,7.604c0.356,0.681,0.046,1.712,0.042,2.582c-0.892-0.219-2.021-0.166-2.636-0.704
	c-3.918-3.413-8.321-5.106-13.578-4.618c-0.824,0.076-2.07-0.592-2.558-1.301c-2.676-3.9-5.217-7.896-7.696-11.926
	c-0.435-0.707-0.707-2.351-0.446-2.499c0.897-0.513,2.208-0.994,3.101-0.698c3.106,1.031,6.1,2.396,9.14,3.627
	c3.003,1.214,3.728,0.881,4.542-2.178c0.721-2.703,1.272-5.456,2.125-8.113c0.286-0.893,1.183-2.05,1.956-2.184
	c0.646-0.112,1.763,0.947,2.249,1.744c1.856,3.049,3.606,6.167,5.255,9.332C49.602,214.898,49.755,216.194,50.166,217.644z"/>
<path fill-rule="evenodd" clip-rule="evenodd" d="M280.223,233.738c-0.133-0.934-0.303-1.291-0.19-1.464
	c2.539-3.881,1.104-7.42-0.777-11.016c-1.563-2.988-1.201-5.855,0.699-8.729c1.749-2.645,3.059-5.579,4.687-8.31
	c0.434-0.728,1.605-1.797,1.954-1.64c0.849,0.384,1.739,1.288,2.031,2.174c0.811,2.467,1.309,5.033,1.961,7.553
	c0.963,3.72,1.858,4.141,5.547,2.634c2.677-1.093,5.302-2.349,8.047-3.231c1-0.321,2.281,0.229,3.434,0.383
	c-0.229,0.951-0.238,2.036-0.726,2.828c-2.371,3.866-4.774,7.72-7.394,11.416c-0.632,0.893-2.167,1.714-3.223,1.639
	c-4.944-0.35-9.066,1.271-12.797,4.376C282.659,233.03,281.448,233.234,280.223,233.738z"/>
<path fill-rule="evenodd" clip-rule="evenodd" d="M37.266,192.814c-0.993,1.998-1.941,4.427-3.334,6.566
	c-1.517,2.329-2.316,4.504-1.09,7.224c0.308,0.684-0.192,1.731-0.32,2.611c-0.89-0.354-2.302-0.468-2.587-1.095
	c-2.38-5.229-7.299-6.543-12.066-8.035c-2.552-0.797-4.026-2.268-4.759-4.864c-1.018-3.611-2.426-7.11-3.493-10.708
	c-0.249-0.838,0.202-1.883,0.331-2.833c0.957,0.16,2.053,0.073,2.847,0.523c3.01,1.708,5.924,3.583,8.868,5.406
	c2.126,1.316,3.71,0.948,5.047-1.27c1.438-2.387,2.973-4.749,4.744-6.891c1.596-1.931,3.105-1.56,3.631,0.878
	C35.936,184.276,36.493,188.289,37.266,192.814z"/>
<path fill-rule="evenodd" clip-rule="evenodd" d="M296.167,210.146c-0.573-1.143-1.362-2.049-1.162-2.415
	c2.161-3.941,0.073-6.983-1.895-10.106c-3.852-6.115-0.884-12.14,0.451-18.116c0.422-1.892,2.163-1.476,3.136-0.258
	c1.619,2.024,3.054,4.205,4.465,6.386c2.041,3.155,2.896,3.497,6.067,1.673c2.832-1.629,5.511-3.524,8.346-5.146
	c0.792-0.452,1.899-0.35,2.862-0.502c0.063,0.882,0.39,1.848,0.146,2.634c-1.229,3.956-2.414,7.95-4.03,11.751
	c-0.633,1.488-2.202,2.75-3.628,3.682c-1.333,0.87-3.026,1.217-4.588,1.706c-3.132,0.979-5.798,2.456-7.326,5.607
	C298.506,208.083,297.399,208.834,296.167,210.146z"/>
<path fill-rule="evenodd" clip-rule="evenodd" d="M63.3,312.124c1.243-0.106,2.541-0.494,3.72-0.268
	c4.163,0.8,8.285,1.807,12.42,2.738c2.556,0.575,3.387,2.152,3.006,4.706c-0.513,3.434,0.49,4.19,3.75,2.906
	c0.864-0.34,1.88-0.898,2.301-1.652c1.557-2.785,4.12-2.936,6.772-2.857c3.569,0.106,7.139,0.267,10.699,0.545
	c1.17,0.091,2.308,0.622,3.628,1.001c-0.972,2.5-2.465,3.649-4.698,3.683c-2.219,0.034-4.441-0.026-6.657-0.139
	c-1.758-0.09-2.341,0.707-1.834,2.283c1.914,5.936,5.243,10.766,10.746,14.002c0.813,0.479,1.13,1.8,1.677,2.732
	c-0.899,0.369-1.874,1.172-2.683,1.029c-2.362-0.414-4.624-1.43-6.987-1.794c-3.04-0.467-6.142-0.519-9.216-0.772
	c-1.681-0.141-3.789,0.223-4.15-2.149c-0.33-2.169,1.431-2.657,3.088-3.079c0.247-0.063,0.441-0.336,1.021-0.802
	c-1.459-2.099-2.627-4.523-4.484-6.169c-1.078-0.955-3.264-0.658-4.95-0.927c-0.162,1.998-0.341,3.994-0.455,5.993
	c-0.01,0.183,0.545,0.363,0.583,0.589c0.214,1.234,0.348,2.48,0.509,3.724c-1.272,0.063-3.038,0.696-3.736,0.093
	c-3.643-3.143-8.096-3.898-12.501-4.958c-3.166-0.761-3.481-1.917-1.286-4.199c3.428-3.568,2.5-8.107,2.514-12.328
	c0.003-0.934-1.976-1.874-3.042-2.811C63.136,312.871,63.218,312.497,63.3,312.124z"/>
<path fill-rule="evenodd" clip-rule="evenodd" d="M258.261,336.117c-7.566,1.626-15.135,3.254-22.79,4.899
	c0-0.192-0.056-0.646,0.01-1.083c0.628-4.256,0.083-4.533-4.08-3.684c-3.079,0.629-6.331,0.367-9.478,0.732
	c-1.185,0.138-2.294,0.92-3.587,1.471c0.575,0.842,0.651,1.02,0.782,1.137c1.046,0.928,2.103,1.844,3.156,2.763
	c-1.202,0.555-2.377,1.502-3.613,1.591c-4.136,0.299-8.295,0.369-12.444,0.333c-0.828-0.008-2.285-0.828-2.327-1.361
	c-0.071-0.899,0.583-2.034,1.265-2.758c0.531-0.566,1.578-0.951,2.371-0.913c3.141,0.149,4.908-1.694,6.577-3.964
	c2.73-3.711,5.588-7.326,8.542-11.18c-1.832-1.105-3.337-2.015-4.989-3.011c1.626-2.51,3.926-2.632,6.203-2.745
	c3.832-0.191,7.678-0.187,11.488-0.56c2.532-0.247,4.409,0.243,6.057,2.334c2.805,3.562,5.911,6.886,8.782,10.397
	c1.043,1.274,1.912,1.605,3.645,1.219c1.601-0.357,3.441,0.36,5.176,0.605c-0.284,1.289-0.567,2.58-0.849,3.868
	C258.159,336.209,258.261,336.117,258.261,336.117z M222.935,331.514c0.196,0.417,0.391,0.834,0.587,1.249
	c3.376-0.211,6.753-0.42,10.793-0.67c-1.862-2.794-3.242-4.865-4.189-6.287C227.624,327.792,225.28,329.654,222.935,331.514z"/>
<path fill-rule="evenodd" clip-rule="evenodd" d="M188.234,345.845c-9.233,0.404-18.464,0.874-27.702,1.111
	c-0.961,0.026-2.343-1.147-2.785-2.106c-0.239-0.52,0.984-2.419,1.752-2.558c2.165-0.387,2.581-1.755,2.733-3.466
	c0.273-3.074,0.513-6.155,0.717-9.237c0.171-2.586-0.773-4.431-3.365-5.427c-0.747-0.287-1.788-1.607-1.624-2.078
	c0.312-0.887,1.376-2.101,2.17-2.134c6.327-0.263,12.665-0.364,18.996-0.275c0.938,0.014,1.86,1.285,2.789,1.973
	c-0.797,0.999-1.443,2.647-2.421,2.876c-3.197,0.751-3.848,2.857-3.746,5.591c0.092,2.503,0.271,5.001,0.415,7.501
	c0.102,1.769,1.129,2.69,2.813,2.636c3.37-0.107,6.767-0.158,10.086-0.665c1.252-0.191,2.422-1.473,3.456-2.443
	c2.318-2.178,4.425-4.593,6.84-6.649c0.762-0.649,2.229-0.47,3.375-0.669c-0.063,1.217,0.28,2.662-0.257,3.61
	c-2.132,3.771-4.532,7.391-6.845,11.059c-1.195,1.897-2.222,2.179-7.363,2.085C188.257,346.334,188.245,346.089,188.234,345.845z"/>
<path fill-rule="evenodd" clip-rule="evenodd" d="M143.529,347.149c-2.258-0.309-3.875-0.66-5.505-0.727
	c-4.201-0.173-8.409-0.177-12.611-0.345c-1.04-0.042-2.065-0.453-3.097-0.695c0.527-1.123,0.764-2.815,1.636-3.26
	c2.453-1.249,2.771-3.257,2.754-5.527c-0.024-3.089-0.01-6.185-0.283-9.254c-0.087-0.973-1.028-1.877-1.599-2.799
	c-0.599-0.967-1.222-1.919-1.834-2.876c1.187-0.698,2.36-1.967,3.564-1.999c4.987-0.131,9.984,0.11,14.976,0.225
	c0.674,0.016,1.46-0.114,1.993,0.184c0.767,0.43,1.349,1.188,2.009,1.807c-0.641,0.493-1.23,1.304-1.933,1.419
	c-2.429,0.403-3.401,1.681-3.497,4.129c-0.118,3.075-0.634,6.131-0.896,9.201c-0.211,2.469,0.646,4.33,3.188,5.172
	c0.717,0.237,1.542,0.564,1.984,1.119c0.676,0.847,1.604,2.054,1.408,2.863C145.614,346.495,144.045,346.868,143.529,347.149z"/>
<g>
	<path d="M366.488,38.303h25.338v50.869h0.503c2.517-4.438,5.202-8.535,7.719-12.632l25.673-38.237h31.379l-37.42,48.991
		l39.434,66.061h-29.869l-27.688-49.674l-9.732,12.12v37.554h-25.338V38.303z"/>
	<path d="M495.189,38.303v115.052h-25.674V38.303H495.189z"/>
	<path d="M517.336,38.303h25.673v93.202h44.971v21.85h-70.644V38.303z"/>
	<path d="M630.43,123.824l-8.055,29.531h-26.513L630.43,38.303h33.56l35.07,115.052h-27.519l-8.727-29.531H630.43z M659.123,104.364
		l-7.047-24.41c-2.014-6.828-4.027-15.363-5.706-22.191h-0.335c-1.679,6.828-3.356,15.534-5.202,22.191l-6.712,24.41H659.123z"/>
</g>
<g>
	<path d="M366.042,192.784h11.16v24.546h0.17c0.937-2.269,1.874-4.699,2.811-7.048l7.667-17.498h12.268l-12.864,23.736
		l13.034,30.864h-12.182l-8.349-22.602l-2.556,4.456v18.146h-11.16V192.784z"/>
	<path d="M413.153,231.345c0.17,6.156,3.918,8.425,8.859,8.425c3.152,0,5.963-0.648,7.923-1.296l1.533,7.615
		c-2.896,1.053-7.241,1.782-11.5,1.782c-11.33,0-17.549-7.128-17.549-19.523c0-13.286,7.241-21.224,16.697-21.224
		c8.945,0,14.142,6.724,14.142,18.713c0,2.835-0.085,4.375-0.341,5.509H413.153z M423.12,223.892c0-5.104-1.363-9.073-4.686-9.073
		c-3.663,0-5.111,5.104-5.197,9.073H423.12z"/>
	<path d="M439.476,219.679c0-3.969-0.17-8.263-0.341-11.908h9.712l0.596,5.751h0.255c1.875-4.212,5.197-6.399,8.264-6.399
		c1.107,0,1.704,0,2.385,0.162v10.531c-0.682-0.162-1.448-0.162-2.385-0.162c-2.385,0-5.538,1.54-6.815,5.671
		c-0.255,0.891-0.426,2.268-0.426,3.969v20.09h-11.245V219.679z"/>
	<path d="M483.263,247.384l-0.596-3.888h-0.17c-2.3,3.078-5.537,4.536-9.201,4.536c-6.304,0-10.989-5.022-10.989-12.07
		c0-10.369,9.626-14.663,19.083-14.744v-0.891c0-3.078-1.959-5.347-5.878-5.347c-3.323,0-6.049,0.811-8.519,2.269l-2.045-7.129
		c2.3-1.296,7.156-2.997,12.949-2.997c12.693,0,14.738,8.425,14.738,16.445v14.744c0,3.159,0.17,6.399,0.682,9.073H483.263z
		 M481.73,228.104c-3.749,0.081-8.86,1.215-8.86,6.724c0,3.969,2.3,5.427,4.004,5.427c1.789,0,3.833-1.053,4.6-3.402
		c0.17-0.567,0.256-1.215,0.256-1.863V228.104z"/>
	<path d="M500.557,191.326h11.16v56.058h-11.16V191.326z"/>
	<path d="M538.381,247.384l-0.597-3.888h-0.17c-2.3,3.078-5.537,4.536-9.2,4.536c-6.305,0-10.99-5.022-10.99-12.07
		c0-10.369,9.627-14.663,19.083-14.744v-0.891c0-3.078-1.959-5.347-5.878-5.347c-3.322,0-6.049,0.811-8.52,2.269l-2.044-7.129
		c2.3-1.296,7.155-2.997,12.948-2.997c12.693,0,14.738,8.425,14.738,16.445v14.744c0,3.159,0.17,6.399,0.682,9.073H538.381z
		 M536.848,228.104c-3.748,0.081-8.859,1.215-8.859,6.724c0,3.969,2.3,5.427,4.004,5.427c1.788,0,3.833-1.053,4.6-3.402
		c0.171-0.567,0.256-1.215,0.256-1.863V228.104z"/>
	<path d="M581.401,192.784v54.6h-11.159v-54.6H581.401z"/>
	<path d="M590.346,219.679c0-4.375-0.256-8.182-0.341-11.908h9.626l0.512,4.537h0.17c2.215-3.16,5.793-5.185,10.138-5.185
		c7.923,0,11.075,5.995,11.075,14.824v25.437h-11.16v-24.789c0-3.402-0.852-6.562-4.089-6.562c-1.875,0-3.408,1.215-4.175,3.564
		c-0.341,0.81-0.597,2.106-0.597,3.646v24.141h-11.159V219.679z"/>
	<path d="M629.021,237.825c1.618,0.972,4.686,2.106,7.496,2.106c2.896,0,4.516-1.215,4.516-3.564c0-2.025-1.192-3.321-4.855-5.347
		c-6.815-3.646-8.435-7.777-8.435-11.422c0-7.129,5.367-12.475,13.716-12.475c3.493,0,6.219,0.81,8.434,1.782l-1.959,7.777
		c-1.619-0.891-3.578-1.621-5.793-1.621c-2.812,0-4.175,1.621-4.175,3.402c0,1.782,0.938,2.754,4.856,4.942
		c6.134,3.321,8.434,7.453,8.434,11.989c0,8.101-6.134,12.475-14.738,12.475c-3.492,0-7.581-0.891-9.541-2.268L629.021,237.825z"/>
	<path d="M670.082,197.078v10.693h8.178v7.534h-8.178v18.065c0,4.618,2.045,5.752,4.26,5.752c1.107,0,1.959-0.081,2.896-0.243
		l0.085,8.263c-1.533,0.405-3.834,0.729-6.815,0.729c-3.237,0-6.049-0.729-8.008-2.511c-2.3-2.106-3.578-5.104-3.578-11.341v-18.713
		h-4.94v-7.534h4.94v-8.182L670.082,197.078z"/>
	<path d="M694.616,197.24c0.086,3.402-2.47,5.751-5.878,5.751c-3.066,0-5.622-2.349-5.537-5.751
		c-0.085-3.564,2.641-5.751,5.708-5.751C692.146,191.488,694.616,193.675,694.616,197.24z M683.457,247.384v-39.613h11.159v39.613
		H683.457z"/>
	<path d="M715.573,197.078v10.693h8.178v7.534h-8.178v18.065c0,4.618,2.044,5.752,4.26,5.752c1.107,0,1.959-0.081,2.896-0.243
		l0.085,8.263c-1.533,0.405-3.834,0.729-6.815,0.729c-3.237,0-6.049-0.729-8.008-2.511c-2.3-2.106-3.578-5.104-3.578-11.341v-18.713
		h-4.94v-7.534h4.94v-8.182L715.573,197.078z"/>
	<path d="M759.445,235.314c0,4.212,0.17,8.344,0.341,12.07h-9.627l-0.597-4.212h-0.17c-1.959,2.673-5.367,4.86-9.626,4.86
		c-7.923,0-11.16-5.589-11.16-16.283v-23.979h11.245v22.844c0,5.185,1.022,8.506,4.174,8.506c1.874,0,3.067-1.377,3.578-2.673
		c0.426-0.81,0.682-2.025,0.682-3.402v-25.275h11.16V235.314z"/>
	<path d="M780.572,197.078v10.693h8.178v7.534h-8.178v18.065c0,4.618,2.045,5.752,4.26,5.752c1.107,0,1.959-0.081,2.896-0.243
		l0.085,8.263c-1.533,0.405-3.834,0.729-6.815,0.729c-3.237,0-6.049-0.729-8.008-2.511c-2.3-2.106-3.578-5.104-3.578-11.341v-18.713
		h-4.94v-7.534h4.94v-8.182L780.572,197.078z"/>
	<path d="M802.721,231.345c0.171,6.156,3.919,8.425,8.86,8.425c3.151,0,5.963-0.648,7.923-1.296l1.533,7.615
		c-2.896,1.053-7.241,1.782-11.501,1.782c-11.33,0-17.549-7.128-17.549-19.523c0-13.286,7.241-21.224,16.697-21.224
		c8.944,0,14.142,6.724,14.142,18.713c0,2.835-0.086,4.375-0.341,5.509H802.721z M812.688,223.892c0-5.104-1.363-9.073-4.686-9.073
		c-3.663,0-5.111,5.104-5.196,9.073H812.688z"/>
	<path d="M873.087,227.456c0,16.526-9.626,20.576-15.93,20.576c-9.968,0-15.931-7.453-15.931-20.333
		c0-14.258,7.837-20.576,16.101-20.576C867.124,207.123,873.087,214.98,873.087,227.456z M852.301,227.456
		c0,6.805,1.107,12.476,5.111,12.476c3.578,0,4.516-6.643,4.516-12.476c0-5.428-0.938-12.313-4.686-12.313
		C853.153,215.143,852.301,222.028,852.301,227.456z"/>
	<path d="M881.351,247.384v-32.08h-5.622v-7.534h5.622v-1.62c0-4.456,0.938-8.587,4.26-11.828c2.471-2.43,6.049-3.645,9.967-3.645
		c2.896,0,5.111,0.405,6.73,0.891l-1.278,8.263c-0.852-0.324-2.044-0.486-3.407-0.486c-3.748,0-5.111,3.078-5.111,6.562v1.863h7.241
		v7.534h-7.241v32.08H881.351z"/>
	<path d="M366.042,273.796h11.16v45.607h14.738v8.992h-25.898V273.796z"/>
	<path d="M427.378,308.468c0,16.525-9.626,20.576-15.931,20.576c-9.967,0-15.93-7.453-15.93-20.334
		c0-14.257,7.837-20.576,16.101-20.576C421.415,288.134,427.378,295.992,427.378,308.468z M406.592,308.468
		c0,6.805,1.107,12.475,5.111,12.475c3.578,0,4.515-6.643,4.515-12.475c0-5.428-0.938-12.313-4.686-12.313
		C407.444,296.154,406.592,303.04,406.592,308.468z"/>
	<path d="M456.77,327.747c-1.107,0.486-3.919,1.135-7.071,1.135c-10.563,0-17.464-6.967-17.464-19.929
		c0-12.232,7.582-20.738,19.083-20.738c2.641,0,5.026,0.567,6.133,1.054l-1.448,8.344c-0.937-0.324-2.3-0.729-4.174-0.729
		c-5.367,0-8.519,4.86-8.519,11.746c0,7.21,3.152,11.585,8.348,11.585c1.619,0,2.982-0.243,4.174-0.811L456.77,327.747z"/>
	<path d="M481.134,328.396l-0.596-3.889h-0.17c-2.3,3.078-5.537,4.537-9.201,4.537c-6.304,0-10.989-5.022-10.989-12.07
		c0-10.369,9.626-14.663,19.083-14.744v-0.891c0-3.079-1.959-5.347-5.878-5.347c-3.323,0-6.049,0.81-8.519,2.268l-2.045-7.128
		c2.3-1.297,7.156-2.998,12.949-2.998c12.693,0,14.738,8.425,14.738,16.445v14.743c0,3.159,0.17,6.4,0.682,9.073H481.134z
		 M479.601,309.115c-3.749,0.081-8.86,1.215-8.86,6.724c0,3.97,2.3,5.428,4.004,5.428c1.789,0,3.833-1.053,4.6-3.402
		c0.17-0.567,0.256-1.215,0.256-1.863V309.115z"/>
	<path d="M498.428,272.337h11.159v56.059h-11.159V272.337z"/>
	<path d="M541.277,315.92l-2.556,12.476h-10.819l12.438-54.6h13.375l11.16,54.6h-10.819l-2.471-12.476H541.277z M550.563,307.657
		l-1.874-11.422c-0.597-3.321-1.363-8.749-1.874-12.395h-0.256c-0.596,3.646-1.448,9.315-2.044,12.476l-2.13,11.341H550.563z"/>
	<path d="M599.888,272.337v44.313c0,3.808,0.17,8.101,0.341,11.746h-9.627l-0.596-4.455h-0.171
		c-1.533,2.754-4.855,5.104-8.689,5.104c-8.859,0-12.948-9.316-12.948-20.415c0-13.771,6.304-20.495,13.375-20.495
		c3.663,0,5.963,1.701,6.985,3.97h0.17v-19.767H599.888z M588.728,304.012c0-0.729,0-1.539-0.085-2.35
		c-0.426-2.43-1.789-4.617-4.004-4.617c-3.919,0-5.367,5.428-5.367,11.827c0,7.534,2.13,11.504,5.282,11.504
		c1.363,0,2.981-0.729,3.833-3.483c0.256-0.567,0.341-1.459,0.341-2.431V304.012z"/>
	<path d="M607.726,300.69c0-4.374-0.256-8.182-0.341-11.908h9.712l0.511,4.617h0.17c2.13-2.997,5.623-5.266,9.968-5.266
		c4.686,0,7.667,2.025,9.115,5.347h0.17c1.022-1.539,2.556-2.997,4.175-3.969c1.704-0.892,3.748-1.378,5.878-1.378
		c7.411,0,10.734,5.59,10.734,15.149v25.112h-11.075v-23.331c0-4.536-0.511-8.182-3.919-8.182c-1.959,0-3.407,1.296-4.174,3.646
		c-0.171,0.567-0.341,1.701-0.341,2.755v25.112h-11.075v-24.87c0-2.835-0.34-6.643-3.833-6.643c-1.704,0-3.407,1.216-4.175,3.564
		c-0.255,0.729-0.426,1.863-0.426,2.997v24.951h-11.074V300.69z"/>
	<path d="M676.813,278.251c0.086,3.402-2.47,5.752-5.878,5.752c-3.066,0-5.622-2.35-5.537-5.752
		c-0.085-3.564,2.641-5.752,5.708-5.752C674.344,272.499,676.813,274.687,676.813,278.251z M665.654,328.396v-39.613h11.159v39.613
		H665.654z"/>
	<path d="M684.651,300.69c0-4.374-0.256-8.182-0.341-11.908h9.626l0.512,4.536h0.17c2.215-3.159,5.793-5.185,10.138-5.185
		c7.923,0,11.075,5.995,11.075,14.825v25.437h-11.16v-24.789c0-3.402-0.852-6.562-4.089-6.562c-1.875,0-3.408,1.215-4.175,3.564
		c-0.341,0.811-0.597,2.106-0.597,3.646v24.141h-11.159V300.69z"/>
	<path d="M734.827,278.251c0.086,3.402-2.47,5.752-5.878,5.752c-3.066,0-5.622-2.35-5.537-5.752
		c-0.085-3.564,2.641-5.752,5.708-5.752C732.357,272.499,734.827,274.687,734.827,278.251z M723.668,328.396v-39.613h11.159v39.613
		H723.668z"/>
	<path d="M742.324,318.837c1.618,0.972,4.686,2.105,7.496,2.105c2.896,0,4.516-1.215,4.516-3.564c0-2.024-1.192-3.321-4.855-5.347
		c-6.815-3.645-8.435-7.776-8.435-11.422c0-7.129,5.367-12.476,13.716-12.476c3.493,0,6.219,0.811,8.434,1.782l-1.959,7.777
		c-1.619-0.892-3.578-1.62-5.793-1.62c-2.812,0-4.175,1.62-4.175,3.402s0.938,2.754,4.856,4.941
		c6.134,3.321,8.434,7.453,8.434,11.989c0,8.101-6.134,12.476-14.738,12.476c-3.492,0-7.581-0.892-9.541-2.269L742.324,318.837z"/>
	<path d="M783.385,278.089v10.693h8.178v7.534h-8.178v18.064c0,4.617,2.045,5.752,4.26,5.752c1.107,0,1.959-0.081,2.896-0.243
		l0.085,8.263c-1.533,0.405-3.834,0.729-6.815,0.729c-3.237,0-6.049-0.729-8.008-2.512c-2.3-2.106-3.578-5.104-3.578-11.341v-18.713
		h-4.94v-7.534h4.94v-8.182L783.385,278.089z"/>
	<path d="M796.675,300.69c0-3.97-0.171-8.263-0.341-11.908h9.711l0.597,5.752h0.256c1.874-4.213,5.196-6.4,8.263-6.4
		c1.107,0,1.704,0,2.386,0.162v10.531c-0.682-0.162-1.448-0.162-2.386-0.162c-2.385,0-5.537,1.539-6.814,5.671
		c-0.256,0.891-0.427,2.269-0.427,3.97v20.09h-11.244V300.69z"/>
	<path d="M840.461,328.396l-0.597-3.889h-0.17c-2.3,3.078-5.537,4.537-9.2,4.537c-6.305,0-10.99-5.022-10.99-12.07
		c0-10.369,9.627-14.663,19.083-14.744v-0.891c0-3.079-1.959-5.347-5.878-5.347c-3.322,0-6.049,0.81-8.52,2.268l-2.044-7.128
		c2.3-1.297,7.155-2.998,12.948-2.998c12.693,0,14.738,8.425,14.738,16.445v14.743c0,3.159,0.17,6.4,0.682,9.073H840.461z
		 M838.928,309.115c-3.748,0.081-8.859,1.215-8.859,6.724c0,3.97,2.3,5.428,4.004,5.428c1.788,0,3.833-1.053,4.6-3.402
		c0.171-0.567,0.256-1.215,0.256-1.863V309.115z"/>
	<path d="M870.022,278.089v10.693h8.178v7.534h-8.178v18.064c0,4.617,2.044,5.752,4.26,5.752c1.107,0,1.959-0.081,2.896-0.243
		l0.085,8.263c-1.533,0.405-3.834,0.729-6.815,0.729c-3.237,0-6.049-0.729-8.008-2.512c-2.3-2.106-3.578-5.104-3.578-11.341v-18.713
		h-4.94v-7.534h4.94v-8.182L870.022,278.089z"/>
	<path d="M894.557,278.251c0.086,3.402-2.47,5.752-5.878,5.752c-3.066,0-5.622-2.35-5.537-5.752
		c-0.085-3.564,2.641-5.752,5.708-5.752C892.087,272.499,894.557,274.687,894.557,278.251z M883.397,328.396v-39.613h11.159v39.613
		H883.397z"/>
	<path d="M932.806,308.468c0,16.525-9.626,20.576-15.93,20.576c-9.968,0-15.931-7.453-15.931-20.334
		c0-14.257,7.837-20.576,16.101-20.576C926.843,288.134,932.806,295.992,932.806,308.468z M912.02,308.468
		c0,6.805,1.107,12.475,5.111,12.475c3.578,0,4.516-6.643,4.516-12.475c0-5.428-0.938-12.313-4.686-12.313
		C912.872,296.154,912.02,303.04,912.02,308.468z"/>
	<path d="M939.111,300.69c0-4.374-0.256-8.182-0.341-11.908h9.626l0.512,4.536h0.17c2.215-3.159,5.793-5.185,10.138-5.185
		c7.923,0,11.075,5.995,11.075,14.825v25.437h-11.16v-24.789c0-3.402-0.852-6.562-4.089-6.562c-1.875,0-3.408,1.215-4.175,3.564
		c-0.341,0.811-0.597,2.106-0.597,3.646v24.141h-11.159V300.69z"/>
</g>
<g>
</g>
<g>
</g>
<g>
</g>
<g>
</g>
<g>
</g>
<g>
</g>
</svg>
